# xmcd
#
# Track frame offsets:
#	150
#	12992
#	24855
#	32487
#	41775
#	54425
#	66475
#	79710
#	90310
#	102555
#	114937
#	126625
#	139500
#	151012
#	163922
#	174985
#	187437
#	200967
#	213265
#	223262
#	235537
#	247645
#
# Disc length: 3457 seconds
#
# Revision: 1
# Processed by: cddbd v1.5.1PL2 Copyright (c) Steve Scherf et al.
# Submitted via: EasyCDDAExtractor 5.0.6
#
DISCID=2f0d7f16
DTITLE=Big Mama Thornton - "Hound Dog" The Essential Collection
DYEAR=1999
DGENRE=Blues
TTITLE0=Houng Dog
TTITLE1=My Man Called Me
TTITLE2=I Smell A Rat
TTITLE3=They Call Me Big Mama
TTITLE4=Cotton Picking Blues
TTITLE5=Willie Mae's Trouble
TTITLE6=I Just Can't Help Myself
TTITLE7=I Ain't No Fool Either
TTITLE8=You Don't Move Me Anymore
TTITLE9=Let Your Tears Fall Baby
TTITLE10=Rock-A-Bye Baby
TTITLE11=Yes, Baby - Duet with Johnny Ace
TTITLE12=How Come
TTITLE13=Nightmare
TTITLE14=Stop A-Hoppin' On Me
TTITLE15=Just Like A Dog, Barking Up The Wrong Tree
TTITLE16=Walking Blues
TTITLE17=The Big Change
TTITLE18=Hard Times
TTITLE19=Laugh, Laugh, Laugh
TTITLE20=The Fish
TTITLE21=I've Searched The Whole World Over (with false start)
EXTD=
EXTT0=
EXTT1=
EXTT2=
EXTT3=
EXTT4=
EXTT5=
EXTT6=
EXTT7=
EXTT8=
EXTT9=
EXTT10=
EXTT11=
EXTT12=
EXTT13=
EXTT14=
EXTT15=
EXTT16=
EXTT17=
EXTT18=
EXTT19=
EXTT20=
EXTT21=
PLAYORDER=
